<svg width="540" height="825" viewBox="0 0 540 825" fill="none" xmlns="http://www.w3.org/2000/svg">
<path d="M494.118 250.593C484.091 250.574 474.347 246.947 466.387 240.27C458.428 233.594 452.694 224.238 450.069 213.645C441.99 178.276 422.354 147.373 394.871 126.778C367.389 106.183 333.965 97.3226 300.92 101.872C267.874 106.422 237.496 124.067 215.529 151.47C193.562 178.873 181.529 214.137 181.703 250.593V291.211H90.9714V250.593C90.5441 189.704 110.541 130.759 147.17 84.9325C183.8 39.1056 234.517 9.58185 289.707 1.95769C344.898 -5.66648 400.726 9.13886 446.609 43.5672C492.491 77.9956 525.24 129.654 538.646 188.75C540.328 196.125 540.444 203.824 538.987 211.256C537.53 218.688 534.537 225.656 530.238 231.625C525.94 237.595 520.45 242.409 514.189 245.697C507.928 248.984 501.062 250.659 494.118 250.593V250.593ZM90.9714 611.432V801.678C90.9714 807.863 93.2162 813.795 97.2119 818.169C101.208 822.543 106.627 825 112.278 825H160.158C165.808 825 171.228 822.543 175.223 818.169C179.219 813.795 181.464 807.863 181.464 801.678V611.432H90.9714ZM251.368 412.538H181.703V336.545C181.735 333.46 181.207 330.399 180.151 327.539C179.094 324.679 177.53 322.077 175.548 319.884C173.566 317.69 171.207 315.949 168.606 314.76C166.005 313.572 163.215 312.96 160.397 312.96H112.517C106.803 312.96 101.323 315.445 97.282 319.868C93.2414 324.291 90.9714 330.29 90.9714 336.545V412.538H20.3489C17.688 412.504 15.0473 413.047 12.5798 414.138C10.1123 415.229 7.86709 416.845 5.97432 418.892C4.08155 420.939 2.57885 423.378 1.55332 426.066C0.527784 428.753 -0.000188525 431.637 5.04969e-08 434.55V446.08H272.675V434.55C272.68 431.546 272.123 428.572 271.038 425.813C269.953 423.053 268.364 420.565 266.368 418.503C264.372 416.441 262.012 414.848 259.432 413.822C256.852 412.796 254.108 412.359 251.368 412.538ZM5.04969e-08 447.128V464.948C-0.00017989 467.998 0.552558 471.018 1.62622 473.833C2.69987 476.648 4.27311 479.202 6.2548 481.347C8.23648 483.492 10.5872 485.185 13.1709 486.328C15.7546 487.472 18.5198 488.042 21.3065 488.008H90.732V564.525C90.7942 570.62 93.0337 576.446 96.9712 580.756C100.909 585.066 106.231 587.517 111.799 587.586H160.876C166.421 587.517 171.719 585.057 175.618 580.739C179.517 576.422 181.704 570.596 181.703 564.525V488.27H251.368C256.787 488.27 261.988 485.932 265.842 481.762C269.697 477.592 271.894 471.927 271.957 465.996V447.128H5.04969e-08Z" fill="#0066FF"/>
</svg>
